<svg xmlns="http://www.w3.org/2000/svg" id="svg" width="512" height="512" version="1.1" viewBox="0 0 128 128"><style>@media (prefers-color-scheme:light){#text{fill:#151515;stroke:#151515}}@media (prefers-color-scheme:dark){#text{fill:#ddd;stroke:#ddd}}</style><path id="text" fill="#ddd" stroke="#ddd" d="m126.586 107.981-2.168-2.167-3.974 3.07q-5.78-5.599-9.392-16.075-4.877-14.269-7.586-18.965-6.683-11.018-20.41-19.327l25.287-18.062-9.212-12.643q-4.877-6.683-8.85-11.921-3.794-5.238-6.684-8.85l-32.15 21.312q-.903-9.211-6.322-14.81-5.419-5.78-14.63-5.78-12.463 0-23.12 9.03v2.349q7.586-1.987 11.56-1.987 14.991 0 14.81 16.798l-.18 7.767-29.26 21.855q29.802 14.63 29.802 37.93-20.049 6.142-32.693 22.94l.181.902q20.591-7.766 35.04-7.766 1.807 0 3.433.18 1.806 0 3.25.181 7.768.903 15.354 5.057 1.445.904 3.973 2.348 2.529 1.445 6.141 3.613l18.424-18.604-2.348-2.348-3.793 3.432q-7.767-4.516-16.617-7.587V68.606q12.643 0 19.868 11.018 2.529 3.793 10.476 23.3 6.141 15.172 13.547 20.952h1.806zM90.46 44.764 64.451 63.91V20.019l5.6-3.794zM60.658 98.589q-3.793-1.084-8.128-1.084V28.327l8.128-5.418zM33.385 62.465 19.838 51.627l13.547-9.03z" aria-label="R"/></svg>